<svg version="1.1" id="Layer_1" xmlns="http://www.w3.org/2000/svg" xmlns:xlink="http://www.w3.org/1999/xlink" x="0px" y="0px"
	 width="100%" viewBox="0 0 704 688" enable-background="new 0 0 704 688" xml:space="preserve">
<path fill="#000000" opacity="1.000000" stroke="none" 
	d="
M337.690186,315.701599 
	C340.399658,304.121552 340.497437,292.880554 338.909546,281.555298 
	C337.910187,274.427704 336.891571,273.378632 329.750610,273.371155 
	C281.753845,273.320953 233.757050,273.279297 185.760269,273.248932 
	C176.500443,273.243073 176.275925,273.278656 175.988388,263.996094 
	C175.112183,235.710754 180.184769,208.632004 193.385483,183.398544 
	C207.116302,157.151779 226.781693,136.684906 253.284180,123.083260 
	C266.453308,116.324593 280.372833,111.896461 295.169983,110.865517 
	C300.940369,110.463493 301.453552,105.028549 305.205261,102.461105 
	C301.250854,98.325821 300.994751,94.118172 304.213837,89.709221 
	C304.955811,88.692986 305.015411,87.471611 304.298706,86.409790 
	C301.995392,82.997429 302.635803,79.803703 305.039490,76.879684 
	C298.070587,68.228706 297.518677,64.305939 302.813690,58.801636 
	C304.396637,62.342831 302.940430,68.635193 309.403656,67.632446 
	C314.300476,66.872742 313.416046,62.391708 313.455109,58.764015 
	C318.385437,60.939243 319.768524,66.869286 316.352661,71.688164 
	C314.199921,74.725082 314.250854,77.408257 314.070190,81.047661 
	C313.805573,86.377502 314.493439,91.109619 315.581146,96.112907 
	C316.098022,98.490532 313.781097,100.254364 312.821045,102.133041 
	C316.028870,108.618309 321.094818,110.948799 328.157959,111.856995 
	C348.531250,114.476646 366.749878,122.849495 383.121002,135.172195 
	C385.623444,137.055786 387.357605,137.369614 390.127533,135.470764 
	C403.338379,126.414391 417.916412,120.522697 433.682098,117.627045 
	C440.246704,116.421333 441.687469,114.079254 439.643494,107.541412 
	C439.126343,105.887253 438.817261,104.371063 439.726044,102.744293 
	C442.806091,97.230843 443.379974,91.999382 439.422974,86.323997 
	C437.290222,83.265091 439.016113,79.793961 442.033173,77.627068 
	C445.128235,75.404144 448.554413,75.804512 451.228363,78.142616 
	C453.648102,80.258415 455.375488,83.226494 453.144653,86.570488 
	C449.694763,91.741829 450.030426,96.964691 452.527740,102.311768 
	C453.611450,104.632141 452.930817,106.829559 452.284729,109.107994 
	C451.042847,113.487625 452.979553,116.754433 457.421783,117.523956 
	C479.200928,121.296715 498.189484,131.007385 514.508362,145.568283 
	C528.251770,157.831177 537.403137,173.583145 545.105164,190.159851 
	C551.644165,204.233475 554.573914,219.155182 555.081299,234.566650 
	C555.193542,237.975952 555.890564,240.778793 558.639893,242.870453 
	C568.403381,250.298431 564.498779,266.500275 556.919861,273.539246 
	C553.670349,276.557220 549.490295,276.163300 545.511719,275.967194 
	C511.715912,274.301453 477.879852,275.412323 444.071075,274.439270 
	C426.751282,273.940765 409.409180,274.205078 392.077087,274.154388 
	C385.806610,274.136047 384.965881,274.808777 384.125519,281.113617 
	C382.076477,296.486603 382.322937,311.630432 388.820892,326.137634 
	C391.710602,332.589142 395.879517,337.758240 402.385956,340.859253 
	C407.642975,343.364746 412.738129,346.244751 418.104950,348.478455 
	C433.674683,354.958679 443.130402,366.773529 448.200989,382.433899 
	C454.165710,400.855713 454.299377,419.736328 452.225861,438.753845 
	C452.001343,440.813080 451.617188,443.028564 449.118073,443.220947 
	C446.645416,443.411255 446.574646,440.916412 445.970490,439.341827 
	C442.333832,429.863708 438.828369,420.335388 435.222748,410.845184 
	C434.667358,409.383331 434.722900,407.461975 432.773315,406.819305 
	C430.855072,407.459534 431.098358,409.188110 430.868835,410.564911 
	C426.124542,439.023438 426.745636,467.188629 434.782562,495.111969 
	C437.785095,505.543884 441.135529,515.726379 446.154297,525.383423 
	C448.612213,530.112854 452.071564,528.546997 455.581787,527.728760 
	C459.097687,526.909241 462.416809,526.065308 462.018494,521.138428 
	C461.374725,513.175720 461.260651,505.168427 460.550415,497.213257 
	C459.221313,482.326233 460.340210,467.573273 463.133759,452.988403 
	C464.313293,446.830139 466.946228,440.993256 467.953491,434.681458 
	C469.921204,422.351288 468.485321,410.496216 464.280609,398.847504 
	C457.355103,379.661194 457.884460,360.678467 466.177124,342.016968 
	C467.185577,339.747559 468.347412,337.091888 471.851898,336.937714 
	C473.042786,339.730499 471.992218,342.280365 471.700745,344.824280 
	C470.438873,355.838074 470.644928,366.660645 474.482117,377.306183 
	C477.657623,386.115967 484.987885,389.899200 492.634155,393.278107 
	C501.443359,397.170807 509.656677,401.600647 514.927490,410.158630 
	C517.844421,414.894775 520.304565,419.823700 521.176636,425.290619 
	C521.851196,429.519318 523.986816,431.245422 528.071350,431.473663 
	C533.224243,431.761536 538.354065,432.563629 543.506836,432.721283 
	C548.795715,432.883057 552.514771,435.208191 555.701477,439.308807 
	C579.901245,470.449066 604.159180,501.544434 628.496826,532.577087 
	C641.418457,549.053345 654.552612,565.362793 667.538208,581.789124 
	C668.976318,583.608215 670.055725,585.709167 671.325684,587.663696 
	C672.071289,588.811096 672.906250,589.982849 671.684937,591.247192 
	C670.437744,592.538330 669.211548,591.615784 668.086304,590.950012 
	C660.049500,586.194824 651.593384,582.258789 643.129700,578.366394 
	C607.994019,562.207153 571.510498,550.540466 533.078186,545.246826 
	C508.449615,541.854492 483.871765,542.465210 459.476868,546.547791 
	C436.509125,550.391602 414.803070,558.377502 394.220612,569.338013 
	C391.857758,570.596252 391.051025,572.052612 392.503387,574.527710 
	C394.015533,577.104553 395.343781,579.788757 396.809937,582.393677 
	C397.027466,582.780212 397.561218,582.988708 398.294434,583.539062 
	C405.036285,578.862244 411.369171,573.489868 418.715118,569.531067 
	C435.209900,560.641968 452.827759,555.502075 471.258301,552.850830 
	C506.984039,547.711792 541.940491,552.086731 576.590393,561.111145 
	C603.391174,568.091309 629.305481,577.548157 654.838196,588.136719 
	C657.360291,589.182617 660.204590,589.983765 662.176758,592.742188 
	C659.014709,594.489563 656.248413,593.052368 653.632507,592.076660 
	C633.965149,584.740967 614.024963,578.298462 593.695068,573.037781 
	C558.078491,563.821533 522.052368,557.623596 485.113434,559.467712 
	C461.161133,560.663391 437.916138,565.524353 416.212799,576.230713 
	C410.846436,578.877930 405.792572,582.121155 401.022919,585.778137 
	C399.188385,587.184814 398.237152,588.630066 398.522675,591.226562 
	C400.091980,605.494934 393.198761,618.528687 380.738678,625.371399 
	C366.859314,632.993652 348.411316,626.352478 341.725586,611.244995 
	C336.745422,599.991577 337.246033,588.805481 343.163208,578.108154 
	C345.333252,574.185059 344.228760,572.415649 340.681824,570.827026 
	C326.489838,564.470886 311.641327,560.097290 296.534424,556.699707 
	C276.982666,552.302612 257.109619,550.043579 237.067245,550.437134 
	C207.619690,551.015320 178.818573,555.735352 150.630569,564.502319 
	C127.166908,571.799927 104.651573,581.187256 83.162392,593.052551 
	C76.475067,596.744995 69.944305,600.721741 63.358131,604.595947 
	C62.255615,605.244507 61.358494,606.497070 59.716198,605.450439 
	C58.760658,603.124451 60.737453,601.877136 61.865456,600.420959 
	C92.262321,561.181274 121.920662,521.383606 151.632843,481.626984 
	C160.504715,469.755920 169.301697,457.827423 177.993362,445.824127 
	C180.384262,442.522247 183.867447,442.323608 187.251282,441.738922 
	C196.391586,440.159668 196.186020,439.885651 197.831909,430.929871 
	C200.324905,417.364807 205.081268,404.767303 217.799438,397.244354 
	C223.077530,394.122314 228.934235,392.012756 234.526077,389.486786 
	C244.097290,385.163147 247.433670,376.933563 249.604660,367.897522 
	C251.776352,358.858459 250.791458,349.688477 249.469894,340.587280 
	C249.305115,339.452484 249.214203,338.302429 249.182861,337.156860 
	C249.177017,336.942566 249.618469,336.715973 250.136734,336.228638 
	C252.794861,336.886536 254.328308,339.272064 255.442429,341.463043 
	C258.616852,347.705811 261.184021,354.154510 261.315887,361.404053 
	C261.556030,374.605621 260.978241,387.408173 255.888123,400.094971 
	C250.076447,414.580109 250.840607,429.803925 255.552643,444.717346 
	C259.677216,457.771362 260.385651,471.233215 259.649200,484.725220 
	C258.997040,496.673645 257.467194,508.573547 256.358826,520.498047 
	C255.789764,526.620361 257.528870,528.579102 263.744965,528.974792 
	C272.718262,529.546021 272.785370,529.576660 276.460144,521.522705 
	C292.904663,485.481445 297.715515,447.957886 290.671051,408.946686 
	C290.554688,408.302338 290.332367,407.667938 290.081512,407.061096 
	C289.962524,406.773376 289.659332,406.561829 289.285553,406.143280 
	C286.500336,406.346100 286.399445,408.872131 285.668884,410.723389 
	C282.124237,419.705566 278.663910,428.720978 275.147156,437.714264 
	C274.785706,438.638580 274.327850,439.547943 273.772797,440.368225 
	C273.030426,441.465332 272.206390,442.747101 270.639771,442.404694 
	C269.021942,442.051056 268.928802,440.531494 268.821320,439.207428 
	C267.728485,425.745422 267.134888,412.325378 269.524200,398.884186 
	C271.827667,385.925995 275.565094,373.654907 283.963806,363.226257 
	C289.206757,356.716095 295.963287,352.153015 303.544189,348.913849 
	C309.990814,346.159424 316.314697,343.189148 322.412903,339.760284 
	C331.618500,334.584198 335.049713,325.597198 337.690186,315.701599 
M343.097717,402.366394 
	C349.441711,423.573608 352.933136,445.243500 351.935394,467.371094 
	C350.951782,489.185394 350.434784,511.123505 345.574463,532.506409 
	C344.667664,532.560181 343.760834,532.613892 342.854004,532.667664 
	C342.255066,502.472809 335.759277,473.742310 324.194275,446.133331 
	C322.033295,446.904663 321.558044,447.553467 321.348999,448.402740 
	C314.281036,477.112549 299.939850,502.063965 281.796173,525.063049 
	C278.558136,529.167603 278.980652,530.810791 284.085419,531.744019 
	C294.425049,533.634216 304.406708,536.805176 314.546753,539.422668 
	C332.241913,543.990234 348.691101,551.550049 365.123169,559.194397 
	C368.407501,560.722229 370.986694,561.080566 373.848572,558.838623 
	C378.205322,555.425659 383.233612,553.148682 388.108734,550.632507 
	C403.251221,542.817078 419.074677,536.770691 435.569000,532.466614 
	C440.836884,531.091980 441.183838,529.841797 437.891663,525.387024 
	C435.320953,521.908508 432.677673,518.476257 430.261993,514.891785 
	C416.587738,494.601379 405.256226,473.245087 400.504456,448.919769 
	C400.258087,447.658356 399.862671,446.289581 398.082794,446.054749 
	C396.487427,446.854095 395.938507,448.460236 395.349762,449.992798 
	C391.349670,460.405701 387.925568,471.030701 385.312836,481.851532 
	C381.524689,497.540405 378.495056,513.391785 378.714874,529.664551 
	C378.741516,531.636963 378.162079,533.288269 375.618835,533.302368 
	C374.294220,532.052856 374.023926,530.424194 373.870636,528.763123 
	C372.203461,510.696808 370.278839,492.624359 370.172028,474.479187 
	C370.051666,454.026489 370.646667,433.730743 376.904510,413.755035 
	C383.317932,393.282776 382.465851,372.662140 375.060333,352.016937 
	C366.529236,328.233673 366.251465,304.064697 376.500549,280.371307 
	C378.326538,276.150024 377.385590,274.712433 372.771301,274.049805 
	C365.307068,272.977875 357.797974,273.313293 350.310608,273.461182 
	C346.188232,273.542603 344.979889,275.634521 346.636383,279.388214 
	C357.345245,303.655609 356.075928,328.188873 347.179810,352.398865 
	C341.232544,368.583740 340.389008,384.805023 343.097717,402.366394 
M394.514282,266.913422 
	C402.012512,266.923737 409.515167,266.770142 417.008148,266.973145 
	C447.152466,267.789795 477.302795,267.768280 507.453217,267.791138 
	C514.864929,267.796753 514.866760,267.766876 514.865845,260.182159 
	C514.865051,253.183716 514.779541,246.183990 514.891724,239.187393 
	C514.945251,235.845078 513.791382,233.865448 510.306244,233.242783 
	C505.559784,232.394760 500.890259,231.109131 496.139099,230.295380 
	C471.925018,226.148163 447.542969,224.455582 423.030029,226.428207 
	C409.099640,227.549225 395.222198,229.360504 381.551544,232.449326 
	C378.539124,233.129959 377.002869,234.667847 377.069763,237.970581 
	C377.224945,245.632370 377.225861,253.299988 377.125946,260.963104 
	C377.076141,264.784119 379.021545,266.483368 382.531433,266.665894 
	C386.189178,266.856110 389.857697,266.838989 394.514282,266.913422 
M537.350647,447.852234 
	C534.619507,447.134155 531.866211,446.489899 529.162659,445.679565 
	C525.672058,444.633392 524.300598,445.869812 524.207275,449.472595 
	C524.086853,454.121674 523.558594,458.759735 523.228516,463.404114 
	C523.100952,465.199524 522.531982,466.787506 520.644531,467.243958 
	C518.359680,467.796509 517.862549,465.837311 517.313049,464.332306 
	C515.886108,460.423950 514.690674,456.429901 513.222107,452.538269 
	C511.854614,448.914490 510.911194,445.050049 508.331116,441.930389 
	C506.282532,443.087189 506.436035,444.875519 506.204773,446.461273 
	C504.444702,458.529022 503.805054,470.622559 505.333252,482.774353 
	C506.813171,494.542023 509.406464,506.048370 513.443665,517.203552 
	C514.387024,519.810120 515.220215,522.664062 518.978149,522.712646 
	C530.315613,522.859131 541.487244,524.321472 552.570801,526.769653 
	C563.604187,529.206665 574.778015,530.939148 585.704956,533.960266 
	C590.763184,535.358765 595.711243,537.687134 601.575928,538.044312 
	C601.057312,536.825378 600.940796,536.325806 600.666138,535.938293 
	C588.442566,518.693726 576.318054,501.377441 563.930664,484.251221 
	C555.260132,472.263763 547.565002,459.573181 537.350647,447.852234 
M174.023956,481.514099 
	C159.302155,503.772278 142.215973,524.369324 127.178246,546.775269 
	C130.075760,547.940796 131.891983,546.808777 133.675522,546.175781 
	C153.783661,539.038940 174.158875,533.003174 195.481827,530.733704 
	C199.232971,530.334473 201.270782,527.895508 202.733948,524.656738 
	C211.998947,504.148163 216.446915,482.662689 215.544144,460.170471 
	C215.404587,456.693634 216.688477,451.426605 211.584015,450.648346 
	C206.735352,449.909088 205.402496,454.680878 203.710083,458.328491 
	C202.457367,461.028381 201.986740,464.441803 198.508499,465.558380 
	C196.268066,463.800995 197.007233,461.441620 196.671844,459.391785 
	C196.430771,457.918518 196.476166,456.156067 194.727173,455.684937 
	C192.961166,455.209259 192.111404,456.752991 191.232788,457.957123 
	C185.642136,465.619598 180.057602,473.286499 174.023956,481.514099 
M224.818970,197.324707 
	C235.600906,169.728790 253.104446,147.016418 275.535828,127.817696 
	C274.240082,128.049866 273.146271,128.443390 272.212036,129.073532 
	C267.524292,132.235397 262.646332,135.171219 258.255554,138.708282 
	C231.572571,160.203125 213.510559,187.579666 203.417679,220.237396 
	C199.386856,233.280014 196.346100,246.544220 196.156860,260.301941 
	C196.127289,262.452240 195.873764,264.617981 198.341278,265.914307 
	C204.699371,269.254700 211.286972,265.661621 211.600983,258.586517 
	C211.696945,256.424683 211.686188,254.256866 211.826141,252.098389 
	C213.040665,233.370422 217.482315,215.395386 224.818970,197.324707 
M232.411911,481.882843 
	C229.631744,487.539093 227.941605,493.637604 224.927277,499.233673 
	C220.514557,507.425781 216.137360,515.592957 210.720963,523.198975 
	C208.041000,526.962402 209.152695,529.069824 213.586716,528.629639 
	C224.889862,527.507568 236.192154,527.755981 247.505417,527.951843 
	C250.418152,528.002258 251.822861,526.614502 251.718063,523.696594 
	C251.652405,521.867920 251.731323,520.024231 251.527771,518.211731 
	C249.813171,502.944427 245.946259,488.186432 240.891800,473.714386 
	C240.304230,472.031982 240.051239,470.081055 237.555344,469.805878 
	C234.828888,473.122925 234.772705,477.585693 232.411911,481.882843 
M298.229431,254.341263 
	C298.680573,257.299347 299.048553,260.273438 299.612823,263.209778 
	C299.975311,265.096191 301.296753,266.003326 303.254517,265.871582 
	C305.168396,265.742828 305.758118,264.467255 305.833374,262.811127 
	C305.901367,261.313812 305.922607,259.813232 305.922668,258.314117 
	C305.923828,221.985138 305.919189,185.656143 305.915924,149.327164 
	C305.915344,142.925339 305.915863,136.523499 305.915863,128.783661 
	C303.352234,134.422668 302.111145,139.006729 301.054169,143.711105 
	C298.238617,156.242264 296.443176,168.870636 295.716003,181.711655 
	C294.356537,205.719971 294.816101,229.636078 298.229431,254.341263 
M320.690033,213.470291 
	C320.961090,184.887314 319.347107,156.532578 311.177338,128.996048 
	C310.860626,149.495590 311.293304,169.943604 310.744110,190.365204 
	C310.144592,212.657227 310.523590,234.942200 310.255157,257.228271 
	C310.231201,259.220459 310.282257,261.223358 310.469208,263.205170 
	C310.607361,264.670013 311.491211,265.630676 313.066986,265.742706 
	C314.682678,265.857544 315.517029,265.005615 315.835724,263.498352 
	C316.110779,262.197723 316.516449,260.917358 316.695435,259.605011 
	C318.739227,244.619675 320.082855,229.571167 320.690033,213.470291 
M190.709244,245.344009 
	C198.604950,196.693329 221.861908,157.458603 262.584991,128.935471 
	C256.883423,130.646194 251.763046,133.014206 246.979828,136.080826 
	C227.045288,148.861221 211.694046,165.875275 200.685776,186.760971 
	C188.472046,209.933762 182.953613,234.681091 184.083725,260.870972 
	C184.157425,262.578918 183.750885,265.101440 186.305328,265.192230 
	C188.798920,265.280823 188.656998,262.847870 188.870636,261.078613 
	C189.468292,256.128845 190.016541,251.173141 190.709244,245.344009 
M475.282349,486.709625 
	C472.013794,497.369629 469.805756,508.214111 468.776337,519.347412 
	C468.345032,524.011719 470.302216,525.204651 474.140350,524.494080 
	C482.365082,522.971313 490.656158,522.875549 498.967133,522.803345 
	C501.046722,522.785278 503.298676,522.987610 505.171478,520.662048 
	C494.949341,505.271027 486.951965,488.728394 482.139740,469.557190 
	C478.164154,475.394501 477.661957,481.010254 475.282349,486.709625 
M270.443665,195.918198 
	C269.827484,199.855789 269.197174,203.791229 268.597565,207.731369 
	C265.854919,225.753616 265.232422,243.782288 268.169373,261.862946 
	C268.644379,264.787140 269.760986,266.513336 272.819214,266.597290 
	C276.759521,266.705536 278.245972,264.507874 277.538116,259.246918 
	C273.556427,229.654236 276.574554,200.583542 283.482086,171.699097 
	C286.691956,158.276703 292.181671,145.655289 296.053741,132.469177 
	C283.250641,151.587952 275.513000,172.756409 270.443665,195.918198 
M224.253769,218.711929 
	C220.779861,232.448502 218.236206,246.317123 218.158051,260.552490 
	C218.139252,263.974976 218.998520,266.627991 223.044556,266.519257 
	C226.963806,266.413910 227.868240,263.920990 227.790344,260.411621 
	C227.471115,246.031158 229.392914,231.913177 232.735062,217.930389 
	C238.572571,193.507797 248.660858,171.144043 263.724091,150.962723 
	C269.245605,143.565140 275.684479,137.012985 281.524902,129.943604 
	C252.808975,152.972229 234.373810,182.694290 224.253769,218.711929 
M269.754547,157.341858 
	C275.332153,148.322113 281.099426,139.436264 288.444427,131.374634 
	C287.775818,131.413681 287.380493,131.314362 287.207153,131.467056 
	C286.210083,132.345337 285.231354,133.250290 284.308228,134.205887 
	C260.560486,158.788757 245.567322,188.034744 238.473389,221.326767 
	C235.874817,233.521942 234.269897,245.921402 234.338516,258.451691 
	C234.358246,262.056763 233.779831,266.493530 239.315765,266.404846 
	C244.583908,266.320465 243.748047,262.135529 243.774521,258.672852 
	C243.826706,251.846313 243.444122,244.972794 244.100845,238.202087 
	C246.864807,209.706650 254.796158,182.777466 269.754547,157.341858 
M259.509399,266.078674 
	C262.924774,264.302612 261.800903,261.133972 261.515717,258.521606 
	C258.488098,230.791611 261.878357,203.743790 270.336517,177.312500 
	C273.943909,166.039566 278.089355,154.913406 283.928223,144.485641 
	C279.234955,151.390839 274.557709,158.300064 270.871948,165.702942 
	C256.234863,195.101776 249.080368,226.229584 250.233185,259.157196 
	C250.476089,266.095337 251.631500,267.103455 259.509399,266.078674 
M334.965179,235.060852 
	C335.664703,204.494675 331.196350,174.771835 320.534668,146.050339 
	C324.066742,163.714386 324.877380,181.622894 325.084198,199.537567 
	C325.324127,220.321289 324.577026,241.086731 320.837860,261.609497 
	C320.148254,265.394592 321.258850,266.786774 325.103607,266.772919 
	C329.648163,266.756592 329.331970,264.148773 328.607452,261.118896 
	C326.826324,253.670181 326.598297,246.598495 333.065247,240.946960 
	C334.517242,239.678040 334.912231,237.837326 334.965179,235.060852 
M291.011749,174.753555 
	C291.892090,167.863510 292.772430,160.973480 293.652771,154.083435 
	C291.803131,159.028427 290.338989,164.068039 288.971283,169.133698 
	C284.398254,186.071579 282.668121,203.445160 281.583954,220.861008 
	C280.714050,234.835464 282.269928,248.741104 284.230194,262.584839 
	C284.720428,266.046936 286.881500,266.836670 289.900940,266.684967 
	C293.171997,266.520599 294.187012,264.608429 293.915588,261.665771 
	C293.747803,259.846619 293.543274,258.029907 293.311249,256.217743 
	C291.453827,241.709610 289.758026,227.190567 289.822479,212.527435 
	C289.876526,200.230667 289.434174,187.919937 291.011749,174.753555 
M368.743805,251.485413 
	C368.746643,248.159760 368.725739,244.833908 368.756683,241.508514 
	C368.856049,230.828400 368.559387,230.615692 358.364929,234.828445 
	C355.550720,235.991409 352.008667,236.405090 351.932526,240.680847 
	C351.802734,247.969650 351.514404,255.256805 351.480011,262.545532 
	C351.467133,265.272888 353.084137,266.741028 355.953369,266.770905 
	C370.391174,266.921143 368.560822,267.815582 368.735840,255.469971 
	C368.749969,254.472443 368.741608,253.474594 368.743805,251.485413 
M539.859131,242.096603 
	C539.906433,239.790329 538.682739,238.390793 536.638916,237.569260 
	C534.327271,236.640076 532.007385,235.730255 529.710632,234.765411 
	C524.692078,232.657150 523.541931,233.296234 523.403809,238.777115 
	C523.253174,244.755447 523.396057,250.740555 523.338867,256.722015 
	C523.224548,268.676208 523.199890,268.570648 535.070251,268.084717 
	C538.723083,267.935211 540.081360,266.473663 539.999573,262.921051 
	C539.846619,256.277405 539.917969,249.628647 539.859131,242.096603 
M378.031860,588.596375 
	C373.441589,580.149963 365.778046,578.831726 361.376190,585.731445 
	C357.605347,591.642090 358.854919,602.554871 363.872162,607.528564 
	C368.316589,611.934448 373.519104,611.451050 376.722656,606.004578 
	C379.795685,600.780029 380.767609,595.158752 378.031860,588.596375 
M320.359344,134.267242 
	C330.737061,156.586990 336.494385,180.212875 340.045197,204.558640 
	C343.513397,198.356583 346.555695,192.647400 343.995117,184.978867 
	C340.461823,174.397186 337.183411,163.766815 332.613434,153.557190 
	C328.513214,144.396957 323.500854,135.799911 317.500000,127.718681 
	C318.364685,129.671219 319.229370,131.623764 320.359344,134.267242 
M454.668945,198.488464 
	C452.009857,198.378464 449.349579,198.150848 446.691925,198.178574 
	C434.368927,198.307083 434.926056,196.802353 435.005920,210.832748 
	C435.021057,213.487183 436.070129,214.847290 438.852875,214.822433 
	C443.846283,214.777863 448.840729,214.866409 453.834625,214.853165 
	C455.150146,214.849655 456.511536,214.861328 457.323578,213.448502 
	C458.581207,211.260315 457.342102,201.224686 454.668945,198.488464 
M431.600830,203.769394 
	C431.720764,200.375031 430.081573,198.888855 426.713470,199.205536 
	C422.916504,199.562531 419.119843,200.080627 415.315430,200.158615 
	C410.922852,200.248642 409.185669,202.137634 409.163696,206.582626 
	C409.115509,216.316498 409.053711,216.417267 418.647278,215.766281 
	C419.639801,215.698929 420.630432,215.590012 421.618286,215.470215 
	C431.160187,214.313187 431.159973,214.311340 431.600830,203.769394 
M464.076965,195.676590 
	C467.366913,196.028381 470.648987,196.517181 473.948273,196.705856 
	C483.246796,197.237610 483.228180,197.189941 482.810120,187.663834 
	C482.695984,185.063644 482.570679,182.532761 479.233948,182.091354 
	C474.323914,181.441849 469.409180,180.822098 464.486786,180.276627 
	C463.178497,180.131638 461.807983,180.225296 460.888794,181.462723 
	C459.047943,183.941040 460.615204,193.230881 464.076965,195.676590 
M478.600006,200.913849 
	C474.170013,200.375931 469.744568,199.795441 465.308044,199.318344 
	C463.145020,199.085739 461.546722,199.501205 461.103180,202.243744 
	C459.274597,213.550339 460.651337,215.364960 471.961121,215.875717 
	C472.126617,215.883194 472.292358,215.885803 472.457825,215.893616 
	C483.527466,216.416336 483.913391,215.955048 482.962982,204.887924 
	C482.757294,202.492584 481.891510,201.161865 478.600006,200.913849 
M429.970978,180.382187 
	C424.429657,179.604828 419.057526,181.293121 413.581543,181.548080 
	C410.895142,181.673172 409.471497,183.549103 409.385834,186.266983 
	C409.317657,188.430542 409.290680,190.597000 409.313934,192.761429 
	C409.345367,195.687027 410.882111,196.988464 413.778503,196.747070 
	C418.421936,196.360092 423.068512,196.007858 427.708771,195.586273 
	C429.258911,195.445435 431.036713,194.912552 431.238312,193.296844 
	C431.760254,189.113968 433.206757,184.820526 429.970978,180.382187 
M435.531403,184.672440 
	C435.786255,194.690948 435.786255,194.690918 445.977417,194.707779 
	C446.476624,194.708603 446.975861,194.708481 447.475037,194.712372 
	C457.328156,194.789185 457.178986,194.794144 456.857819,184.919586 
	C456.728302,180.937500 455.307220,179.067810 451.248627,179.205704 
	C447.926727,179.318558 444.594574,179.252075 441.270630,179.147629 
	C437.906311,179.041916 435.827423,180.314529 435.531403,184.672440 
M503.309082,219.689758 
	C503.779083,219.546890 504.460144,219.555695 504.687927,219.238754 
	C509.326080,212.784912 506.240021,205.170303 498.587738,204.098465 
	C497.930725,204.006439 497.263855,203.965530 496.615906,203.831497 
	C485.626099,201.558090 486.348236,199.294983 486.211548,213.346771 
	C486.183899,216.189301 487.284576,217.567200 490.198883,217.869171 
	C494.313782,218.295578 498.394897,219.048035 503.309082,219.689758 
M486.303802,194.123245 
	C486.259247,196.423859 486.521851,198.367157 489.466614,198.815201 
	C493.716492,199.461853 497.951508,200.263062 502.142639,201.218597 
	C504.804413,201.825470 505.935272,200.923157 505.907318,198.312256 
	C505.886017,196.325241 505.648743,194.324356 505.812073,192.354889 
	C506.157562,188.188965 504.028290,186.272903 500.215637,185.654434 
	C498.909058,185.442490 497.601440,185.207565 496.317627,184.889084 
	C484.746704,182.018860 486.298859,183.001907 486.303802,194.123245 
M386.190430,212.295029 
	C386.664764,219.459946 386.823334,219.619843 393.846313,218.600845 
	C396.797699,218.172592 399.727661,217.591125 402.659943,217.039825 
	C403.791138,216.827148 405.297577,216.701447 405.516998,215.419250 
	C406.245361,211.162476 406.972595,206.489792 405.056488,202.743805 
	C403.452698,199.608414 400.004669,202.550201 397.377411,202.914658 
	C395.735474,203.142426 394.099792,203.448303 392.450226,203.581375 
	C387.544647,203.977112 385.249359,206.402084 386.190430,212.295029 
M396.767517,199.060211 
	C398.729004,198.734680 400.695496,198.435959 402.650299,198.074310 
	C403.990631,197.826340 405.486237,197.417542 405.567688,195.832642 
	C405.769043,191.912888 407.425507,187.496719 404.969421,184.217422 
	C402.982300,181.564285 399.393585,183.799500 396.538879,184.219849 
	C394.576416,184.508820 392.625031,184.951721 390.714020,185.487534 
	C389.062439,185.950623 387.612366,186.862488 387.252899,188.708466 
	C386.473663,192.709824 385.704559,196.729248 386.975037,201.137863 
	C390.147125,200.466614 393.047150,199.852951 396.767517,199.060211 
M478.855835,165.448105 
	C474.223419,163.940308 469.353790,164.054626 464.596008,163.423141 
	C462.191193,163.103973 460.137390,164.028595 460.232971,166.883240 
	C460.342102,170.141953 458.009949,175.031128 462.294281,176.138336 
	C468.376678,177.710190 474.862305,178.403046 481.556854,178.189850 
	C481.333649,173.692169 482.124084,169.508026 478.855835,165.448105 
M432.688812,169.435028 
	C433.153412,164.917465 431.808990,162.369232 426.618103,163.469788 
	C424.372284,163.945969 422.016663,164.158142 419.721100,164.098343 
	C412.619965,163.913406 410.997345,165.796753 411.087463,174.052658 
	C411.117859,176.833603 412.316193,177.987274 415.053986,177.708099 
	C419.003418,177.305374 422.952179,176.863708 426.912109,176.605148 
	C430.957153,176.341034 433.017120,174.448090 432.688812,169.435028 
M448.409973,175.395966 
	C456.556213,176.027725 457.705170,174.613770 456.092316,166.604446 
	C455.609283,164.205765 454.518982,163.107559 452.164246,163.073257 
	C448.681305,163.022491 445.179413,163.152512 441.721100,162.827850 
	C437.830139,162.462540 436.353149,164.000198 436.192780,167.839630 
	C435.877350,175.392258 436.119873,175.795914 443.593750,175.604248 
	C444.920074,175.570236 446.245087,175.484985 448.409973,175.395966 
M504.414551,177.772614 
	C503.811523,171.687180 500.781860,168.178986 494.365509,167.897308 
	C492.592102,167.819473 490.874054,166.872650 489.091644,166.523270 
	C485.884064,165.894562 484.063446,166.513565 484.634827,170.581146 
	C485.825134,179.054871 485.653656,179.090286 494.050598,180.840393 
	C495.991730,181.244980 498.024170,181.327866 499.894318,181.931412 
	C503.295654,183.029114 504.514008,181.664780 504.414551,177.772614 
M399.333069,166.907379 
	C397.734131,167.320587 396.141876,167.761902 394.535004,168.141602 
	C390.172211,169.172531 386.657013,176.158005 388.419495,180.184082 
	C389.013763,181.541550 390.077759,181.801071 391.239807,181.592468 
	C395.296265,180.864227 399.346100,180.083069 403.367981,179.185623 
	C405.076172,178.804443 406.505005,177.668518 406.625977,175.849152 
	C406.839569,172.636810 407.966095,169.441452 407.216919,165.921707 
	C404.671295,166.193741 402.386749,166.437881 399.333069,166.907379 
M522.554199,193.092102 
	C518.623047,191.025482 514.611511,189.211716 509.888641,188.841125 
	C508.777557,192.788651 509.230957,196.551193 509.547455,200.284546 
	C509.679962,201.847687 510.545990,203.227219 512.164490,203.576599 
	C516.107300,204.427719 520.578491,208.339035 523.723694,205.777634 
	C526.611877,203.425537 524.441528,198.348953 523.538513,194.513458 
	C523.465210,194.202072 523.251770,193.923645 522.554199,193.092102 
M382.814148,209.986893 
	C382.820587,206.814209 381.374481,205.808441 378.358368,206.872604 
	C376.324615,207.590149 374.215149,208.089920 372.164398,208.762909 
	C367.504242,210.292206 365.090759,217.226486 367.727753,221.381638 
	C368.439697,222.503494 369.494537,222.747742 370.717621,222.786682 
	C380.033478,223.083252 382.943176,220.226425 382.814148,209.986893 
M367.911804,197.321869 
	C366.347717,205.966019 366.840851,206.427795 375.117218,204.145981 
	C376.077393,203.881271 377.089264,203.801178 378.045593,203.525864 
	C382.128052,202.350449 385.098145,192.457367 382.324097,189.261490 
	C382.025635,188.917664 381.537842,188.659042 381.089874,188.536438 
	C376.979645,187.411560 368.839722,192.429993 367.911804,197.321869 
M509.339935,211.973465 
	C509.317535,212.636520 509.221313,213.306870 509.285950,213.961319 
	C509.520569,216.338181 508.130981,219.639191 510.782379,220.797302 
	C514.502563,222.422256 518.668213,223.080399 522.691956,223.918671 
	C523.645813,224.117386 524.251892,222.905014 524.633423,221.931564 
	C526.769958,216.480499 524.485229,211.259369 519.064453,209.322006 
	C517.504883,208.764633 515.905090,208.320328 514.342957,207.769531 
	C511.145447,206.642075 509.597412,207.891510 509.339935,211.973465 
M413.489227,156.831528 
	C413.096191,159.166733 413.569183,160.840607 416.438232,160.639999 
	C420.893127,160.328522 425.399536,160.322174 429.787109,159.598450 
	C434.459534,158.827698 433.496643,154.668076 433.408173,151.588455 
	C433.314423,148.327194 430.687897,149.664352 428.861816,149.823288 
	C425.733398,150.095566 422.608459,150.410660 419.478119,150.657959 
	C416.091522,150.925522 413.849518,152.374527 413.489227,156.831528 
M459.953827,158.395447 
	C464.225647,161.274796 469.162323,160.384201 473.855988,160.772491 
	C475.707581,160.925659 478.359222,161.507599 478.545746,158.637924 
	C478.721649,155.931122 478.720490,152.430588 475.367554,151.619125 
	C470.301697,150.393127 465.079529,149.511520 459.756531,150.246750 
	C458.758301,152.853195 459.129303,155.278519 459.953827,158.395447 
M450.169800,149.154724 
	C446.850861,149.207199 443.517487,149.084549 440.216766,149.357407 
	C436.277740,149.683075 437.289276,153.159622 436.740295,155.533432 
	C436.226105,157.757019 437.386963,159.232712 439.563660,159.296768 
	C444.801788,159.450943 450.047516,159.346725 456.356842,159.346725 
	C454.323669,155.128555 457.605774,149.919907 450.169800,149.154724 
M370.807312,187.347092 
	C372.562744,186.835342 374.311310,186.298630 376.074738,185.816116 
	C384.520172,183.505188 386.292786,180.507935 384.353394,171.776245 
	C373.381958,173.285492 369.775940,177.211319 370.807312,187.347092 
M483.286133,160.046082 
	C488.146271,164.982010 494.728638,163.776398 500.658051,165.469437 
	C500.575104,155.803238 496.284241,153.364456 482.598175,153.478241 
	C481.868286,155.497437 483.165466,157.336761 483.286133,160.046082 
M404.666840,162.222366 
	C410.394287,161.236938 409.614166,156.759171 410.145355,152.656219 
	C406.022217,151.730057 402.636322,153.366119 399.176575,154.174728 
	C392.899170,155.641846 391.679901,157.530472 392.305969,164.358490 
	C396.318054,164.667770 400.051758,163.171646 404.666840,162.222366 
M508.891968,183.301819 
	C512.465088,186.273071 516.805115,186.678864 520.993347,187.616882 
	C523.493591,178.921265 517.551941,172.610779 507.576050,172.913818 
	C507.893860,176.153763 508.209869,179.375397 508.891968,183.301819 
M332.057678,133.686249 
	C330.952026,133.092392 330.622528,131.197845 328.488251,131.732895 
	C339.541748,143.585648 346.910309,157.731766 355.246277,171.371872 
	C358.682098,168.921783 357.282654,166.929611 356.108307,164.899414 
	C349.584961,153.621780 341.672150,143.413773 332.057678,133.686249 
M353.711731,139.785980 
	C358.370026,144.695709 363.028351,149.605438 367.726410,154.557037 
	C371.466492,152.709198 372.366364,150.708542 368.935669,147.878281 
	C364.451813,144.179184 360.149750,140.251038 355.558380,136.693939 
	C352.382324,134.233337 349.059845,131.839340 344.676056,131.262238 
	C347.507355,133.953506 350.338684,136.644775 353.711731,139.785980 
M347.770203,263.787689 
	C347.802124,258.451416 348.473938,253.075409 347.337189,247.759308 
	C340.769257,248.785080 339.925690,255.628036 340.167603,262.004883 
	C340.239502,263.900665 340.377625,265.757568 342.598236,266.344757 
	C344.595093,266.872772 346.581696,267.038025 347.770203,263.787689 
M360.464966,209.794006 
	C364.137024,207.119446 365.142761,201.263184 362.855896,195.871979 
	C355.163452,198.083069 353.052979,201.884308 354.076935,212.781738 
	C356.348724,212.661285 357.899384,210.987991 360.464966,209.794006 
M537.182739,213.471375 
	C539.422791,204.109116 536.790283,198.178955 528.674866,197.181686 
	C526.939026,207.890701 527.590454,209.239075 537.182739,213.471375 
M445.565002,145.726242 
	C447.228241,145.721481 448.892273,145.747437 450.554504,145.703781 
	C452.415802,145.654922 454.460541,145.675110 454.534851,143.071152 
	C454.602325,140.707062 453.783508,138.590378 451.097229,138.404282 
	C447.793854,138.175415 444.448822,138.191589 441.145416,138.429688 
	C438.352051,138.631012 437.904938,141.019577 437.776886,143.220901 
	C437.607574,146.130646 439.941071,145.558304 441.660767,145.695297 
	C442.652802,145.774323 443.655609,145.717743 445.565002,145.726242 
M544.077026,256.653412 
	C544.101257,259.477814 544.078308,262.303741 544.166931,265.126099 
	C544.222961,266.906097 545.304993,267.807861 547.043091,267.932037 
	C548.583557,268.042145 550.020630,267.907074 551.001770,266.441437 
	C553.869446,262.157684 549.891724,251.297195 544.683289,249.400909 
	C543.689575,251.442871 544.327393,253.636719 544.077026,256.653412 
M358.288055,152.203125 
	C351.776855,144.306473 344.340912,137.368240 336.280548,131.039536 
	C345.321350,140.954971 353.731995,151.366562 361.830841,163.357574 
	C364.895264,157.464157 360.275604,155.645538 358.288055,152.203125 
M346.624481,177.705994 
	C347.462891,179.203049 347.432709,181.324188 349.567108,181.917633 
	C352.566223,177.793610 343.472809,156.476166 336.204712,151.238251 
	C340.067932,160.011658 343.471222,168.416336 346.624481,177.705994 
M420.049530,146.748962 
	C423.181183,146.553787 426.311279,146.327789 429.444855,146.170593 
	C434.206421,145.931747 434.628784,143.229156 433.451904,139.105988 
	C428.862732,139.626053 424.444489,140.035629 420.057617,140.663940 
	C417.994080,140.959473 417.077209,142.577499 416.808472,144.553009 
	C416.548615,146.462784 417.772095,146.761749 420.049530,146.748962 
M464.032501,146.684998 
	C466.683075,146.736374 469.333740,146.827347 471.984222,146.823349 
	C473.431641,146.821152 475.235291,147.100708 475.472565,144.999756 
	C475.678406,143.177094 474.825073,141.780228 472.943298,141.252350 
	C468.327393,139.957443 463.609589,139.825317 458.769073,139.520935 
	C458.133240,143.682419 458.956329,146.275864 464.032501,146.684998 
M333.511292,250.151825 
	C330.158234,256.891113 330.738068,260.980347 335.773529,263.685913 
	C336.475128,259.347198 337.016357,255.110260 337.874451,250.938461 
	C338.771912,246.575455 344.451355,245.900177 346.046234,241.094559 
	C340.607971,242.755859 337.335815,246.258881 333.511292,250.151825 
M555.454773,265.863220 
	C556.281494,267.478607 557.064697,266.471039 557.571838,265.701996 
	C560.108582,261.855194 561.121277,257.616974 558.737671,253.498764 
	C555.986755,248.746063 552.108765,245.054504 545.686096,242.964890 
	C547.435303,246.153717 549.396423,247.454788 551.169739,248.883377 
	C553.262756,250.569519 554.312195,252.828217 554.661926,255.289078 
	C555.126282,258.556183 555.136169,261.887848 555.454773,265.863220 
M383.826660,167.395508 
	C387.973633,165.624374 387.497833,161.765427 388.375488,158.305801 
	C380.751617,158.469681 375.191223,162.816086 376.083771,169.357651 
	C378.644897,169.733322 380.762268,168.179626 383.826660,167.395508 
M360.527832,213.442795 
	C358.584473,214.700699 356.458435,215.751465 354.741211,217.265823 
	C352.263519,219.450790 351.609253,222.098694 353.960052,225.174423 
	C356.601990,224.148407 359.049896,223.185226 361.507233,222.246719 
	C364.223358,221.209335 363.816803,218.876831 363.654785,216.779648 
	C363.533875,215.214722 364.418915,212.678650 360.527832,213.442795 
M504.310181,160.787079 
	C506.141876,167.845612 509.877472,170.419983 516.803101,169.056656 
	C516.010864,167.189606 515.457886,165.255417 514.437561,163.611267 
	C512.221619,160.040482 507.193542,158.410690 504.310181,160.787079 
M531.432007,224.060272 
	C533.700134,224.849243 535.851196,226.261810 538.397827,225.659119 
	C539.197388,219.348587 537.014343,216.789429 529.406616,215.042572 
	C528.796082,218.134338 526.561829,221.338425 531.432007,224.060272 
M397.713684,149.642624 
	C407.928192,150.360153 412.237488,148.306122 411.990295,142.837662 
	C405.209900,141.739456 399.830994,144.050400 397.713684,149.642624 
M365.467072,188.698837 
	C365.784149,185.836868 367.824097,183.114655 366.288086,180.060654 
	C359.554291,181.800018 356.966858,185.702530 357.722595,192.825912 
	C361.306427,192.091019 361.306427,192.091019 365.467072,188.698837 
M528.929626,181.824585 
	C527.809021,181.330505 526.964233,179.937698 525.440063,180.696304 
	C525.672302,190.219681 526.715759,191.777313 534.451416,193.831711 
	C534.876221,188.983398 533.531433,185.057480 528.929626,181.824585 
M479.712891,143.695129 
	C481.059418,148.768066 485.525696,150.688187 494.509369,150.056366 
	C493.098938,145.003250 486.811249,141.993195 479.712891,143.695129 
M440.010254,130.357834 
	C438.397980,133.310944 439.398560,134.699371 442.638428,134.731705 
	C445.113770,134.756409 447.590057,134.811295 450.064392,134.766983 
	C451.512268,134.741058 453.325012,134.939102 453.448547,132.827637 
	C453.562042,130.888245 452.292236,129.663559 450.447144,129.547684 
	C447.175537,129.342255 443.868835,128.909546 440.010254,130.357834 
M424.030426,131.288269 
	C421.451111,131.809265 420.736389,133.595566 420.613007,135.890793 
	C428.486938,137.863251 434.364532,135.756165 434.982605,130.691864 
	C431.545990,129.800797 428.176910,130.450592 424.030426,131.288269 
M464.669373,130.914749 
	C462.259369,130.342804 459.849060,129.800461 457.418488,130.714859 
	C457.633942,135.712891 465.031769,138.220856 472.157623,135.785233 
	C471.365051,132.140152 468.568085,131.395599 464.669373,130.914749 
M371.075684,142.374878 
	C375.313843,146.043762 375.313843,146.043762 377.970367,143.592636 
	C374.091797,138.767822 364.560699,133.022873 359.011932,132.273087 
	C362.390503,136.229416 366.653870,138.849106 371.075684,142.374878 
M347.913940,206.847092 
	C344.330292,210.271317 344.101105,214.427719 344.678650,219.120560 
	C349.166473,217.432083 352.021942,209.238663 349.701782,206.078308 
	C349.603760,205.944809 348.844116,206.297028 347.913940,206.847092 
M542.191284,212.577133 
	C542.403381,215.666565 541.681519,219.317673 546.402527,219.957443 
	C547.679626,212.652512 546.945618,210.609695 541.868347,206.864746 
	C541.966797,208.492752 542.066162,210.135864 542.191284,212.577133 
M412.399719,138.119095 
	C414.454163,137.406937 415.797760,136.267319 415.188477,133.832932 
	C408.684235,133.680588 406.097107,135.046951 404.777679,139.327148 
	C407.116241,139.003860 409.397949,138.688446 412.399719,138.119095 
M389.888000,147.839050 
	C386.198273,148.977661 383.067078,150.664352 382.551422,155.245438 
	C386.289612,154.311340 389.959534,153.654449 392.084778,150.264206 
	C393.058899,148.710190 393.677307,146.880692 389.888000,147.839050 
M371.331818,167.258362 
	C367.327850,166.419601 364.300140,169.466705 363.875122,174.912170 
	C368.599609,174.840744 370.518860,171.974182 371.331818,167.258362 
M524.097046,174.343735 
	C525.973022,175.107010 527.304321,177.024490 529.767395,177.213882 
	C528.507446,172.695862 526.951355,168.883881 521.841614,168.011642 
	C520.742737,170.611755 522.347107,172.193848 524.097046,174.343735 
M508.000397,154.082535 
	C507.529541,148.932556 503.824860,148.916916 499.573303,148.292755 
	C500.974579,153.003937 503.550964,154.706680 508.000397,154.082535 
M477.468597,136.601135 
	C480.157074,138.690063 482.968323,139.714615 486.520691,137.845306 
	C484.361969,134.398117 480.920746,134.546982 478.031677,133.852798 
	C476.551025,133.497040 477.110931,135.106567 477.468597,136.601135 
M352.679596,192.564819 
	C352.485199,191.046448 351.507751,190.933716 350.822296,191.952438 
	C349.176208,194.398804 347.394775,196.891510 347.819794,200.606293 
	C351.598694,199.129868 352.743774,196.554901 352.679596,192.564819 
M540.631226,199.384628 
	C541.601990,200.511612 542.515991,201.831100 544.476013,200.334427 
	C543.736938,197.450684 543.365967,194.386810 540.074097,192.670135 
	C538.945801,195.005630 540.295532,196.832352 540.631226,199.384628 
M449.483582,126.049271 
	C450.405365,125.739319 451.107666,124.958633 449.986664,124.467064 
	C447.131256,123.214890 444.225494,122.949318 441.039337,125.924278 
	C444.117889,126.890564 446.477753,126.700836 449.483582,126.049271 
M310.472656,97.817261 
	C312.166199,95.888229 311.940094,94.185997 309.628815,93.092476 
	C308.000061,92.321892 307.072601,93.611946 306.787842,94.916840 
	C306.252014,97.372215 307.212585,98.724167 310.472656,97.817261 
M349.291534,222.562363 
	C346.484619,222.874664 345.767303,224.726669 345.581787,227.513489 
	C349.384155,227.827393 349.936157,225.837601 349.291534,222.562363 
M545.678406,229.655655 
	C546.943848,226.931412 545.347534,225.764938 543.080627,224.567551 
	C541.759949,227.359741 542.651917,228.807068 545.678406,229.655655 
z"/>
<path fill="#000000" opacity="1.000000" stroke="none" 
	d="
M139.806015,416.600769 
	C140.989960,411.254608 143.308105,406.850891 146.648193,403.056427 
	C149.203461,400.153595 150.211594,397.291290 148.390564,393.551392 
	C146.180893,389.013336 146.488663,385.155914 152.092041,383.216949 
	C154.242020,382.473022 154.303360,380.655243 154.013351,378.652496 
	C153.633270,376.027710 153.318024,373.367035 153.305878,370.720306 
	C153.261963,361.135437 157.893524,355.060852 167.135544,353.155945 
	C167.652863,351.246063 166.748535,350.121338 166.344177,348.891937 
	C163.686661,340.811798 166.917648,335.812103 175.458939,335.166748 
	C182.741394,334.616547 189.302353,336.697052 194.876450,341.465149 
	C200.535583,346.306030 201.143570,354.687408 196.049210,362.414337 
	C192.570297,367.691040 188.719543,372.835388 182.208405,374.838196 
	C180.225296,375.448242 179.324600,376.938721 178.628723,378.698029 
	C177.136307,382.471191 174.898605,385.843536 172.028473,388.611938 
	C169.424622,391.123505 169.269348,393.100861 171.657150,395.780731 
	C172.967957,397.251831 175.308228,399.213409 173.125885,401.317108 
	C170.942947,403.421448 168.846848,401.203552 166.905563,400.054382 
	C164.364975,398.550385 163.036636,394.470306 159.920258,394.921661 
	C155.394043,395.577240 159.364609,400.232178 157.400192,402.492798 
	C156.773193,403.214294 156.676514,404.382263 156.083969,405.150665 
	C153.860153,408.034332 153.891724,409.777649 157.737167,411.463867 
	C161.730026,413.214783 163.006439,418.837524 160.419449,424.330627 
	C155.393387,435.002655 147.396973,442.775757 135.855286,446.193909 
	C128.693268,448.314972 122.080345,446.970581 117.550560,440.669678 
	C112.866470,434.154236 112.708290,426.926270 116.496330,419.904907 
	C119.716446,413.936249 124.791412,410.460907 131.810654,410.394012 
	C134.315796,410.370117 136.296539,411.158020 137.375427,413.735474 
	C138.457611,416.320740 137.540802,418.235748 135.842575,420.058838 
	C134.108307,421.920563 131.932587,423.133453 129.728790,424.326904 
	C126.513916,426.067902 124.283051,428.596161 125.600586,432.403900 
	C126.850334,436.015656 129.946487,437.047394 133.656403,436.906067 
	C137.464188,436.761047 140.168518,434.596924 142.893372,432.417297 
	C144.987320,430.742340 145.205902,428.734894 143.122894,426.925537 
	C140.017181,424.227753 139.362854,420.806030 139.806015,416.600769 
M174.821793,370.362000 
	C176.721680,373.263977 180.507202,372.815613 184.427246,368.800690 
	C178.415146,370.515869 176.360596,367.367859 174.761871,362.686462 
	C173.296478,358.395508 168.881134,356.409698 165.148773,357.463318 
	C160.653732,358.732269 158.297043,362.387543 158.936722,367.098328 
	C170.693802,361.657318 171.673706,361.821198 174.821793,370.362000 
M166.815933,366.610504 
	C160.956131,371.114655 159.873367,378.754211 164.640900,383.171387 
	C166.944138,382.073639 168.466385,380.128174 169.718140,377.955811 
	C172.555893,373.030914 171.830658,369.417603 166.815933,366.610504 
M170.786148,349.189880 
	C173.709717,343.127686 178.959259,340.948822 186.480972,341.256287 
	C180.119354,337.435577 174.129547,337.244629 170.941452,340.218262 
	C168.124390,342.845825 168.677643,345.827423 170.786148,349.189880 
M187.259048,349.947693 
	C184.207916,351.591003 181.156784,353.234344 177.075577,355.432465 
	C182.576920,356.442108 186.232834,355.451111 189.272934,352.490479 
	C191.446152,350.374023 193.290146,350.424500 194.860199,353.628906 
	C196.036438,350.189301 195.983154,347.761658 193.227798,346.007019 
	C190.923492,346.515442 189.743134,348.573639 187.259048,349.947693 
M184.378281,344.600433 
	C181.740997,344.597778 179.140915,344.862244 177.065536,346.677582 
	C176.128082,347.497528 174.889038,348.622253 176.266251,349.959198 
	C177.766251,351.415375 179.635742,350.507568 180.762634,349.595795 
	C182.366638,348.297913 186.416428,348.873657 184.378281,344.600433 
M178.899872,359.478546 
	C177.311676,362.288605 179.042740,364.865265 181.098877,365.084045 
	C183.917084,365.383942 186.054504,363.161163 186.190674,359.380737 
	C183.799713,359.380737 181.687012,359.380737 178.899872,359.478546 
z"/>
<path fill="#000000" opacity="1.000000" stroke="none" 
	d="
M609.453003,319.287903 
	C623.685547,327.090515 621.193176,339.960815 611.156067,351.123718 
	C610.495789,351.858124 609.734741,352.729401 608.854614,353.002533 
	C601.956909,355.143219 599.018311,360.790314 596.044373,366.655640 
	C594.854736,369.001740 594.341553,370.682098 595.889099,372.998413 
	C599.174561,377.916107 600.836914,383.481964 601.869019,389.274963 
	C602.237000,391.340363 602.050110,393.255737 601.202637,395.114502 
	C600.281372,397.135071 598.630554,398.142090 596.423157,398.061157 
	C594.263977,397.982056 593.164001,396.596863 592.700623,394.639435 
	C591.705750,390.436371 590.736511,386.227112 589.779236,382.015289 
	C588.966675,378.440247 586.968384,377.635773 584.013062,379.705994 
	C572.659180,387.659454 562.598206,380.666779 559.365112,367.058533 
	C558.567749,363.702484 562.267700,359.150177 566.402832,357.888947 
	C570.914246,356.512909 575.282593,357.050598 579.540527,358.893494 
	C581.219666,359.620239 582.898865,360.361053 584.516602,361.212311 
	C587.035828,362.537933 588.912231,362.406433 590.007812,359.373474 
	C591.113953,356.311310 589.310303,355.622711 586.919983,355.069977 
	C582.660461,354.084930 579.040710,352.332397 578.296814,347.326202 
	C577.697632,343.294006 579.347961,341.388062 583.259399,342.414825 
	C586.279785,343.207581 589.079041,344.815430 592.015320,345.961639 
	C599.222595,348.775055 604.179749,347.097961 607.062012,340.410217 
	C601.344788,341.406616 596.098999,341.370728 591.602417,337.343079 
	C587.304810,333.493652 586.185974,328.407135 585.426331,323.246307 
	C583.387085,322.230591 581.608765,323.379608 579.815979,323.172913 
	C576.837708,322.829590 574.910706,321.199890 574.006531,318.446014 
	C573.486816,316.863251 574.058472,315.261230 575.580933,314.638977 
	C578.239685,313.552307 581.460388,312.643036 583.361267,315.397614 
	C585.855591,319.012390 588.203064,318.490448 591.756226,317.138489 
	C597.676880,314.885712 603.546326,316.518372 609.453003,319.287903 
M601.211670,322.798737 
	C602.274414,322.558746 603.550232,323.156311 604.404907,322.011444 
	C599.550598,318.705994 594.512756,318.525940 591.367310,321.708038 
	C589.164185,323.936920 588.408691,326.388611 591.348267,329.269012 
	C593.472473,325.530670 596.507324,323.470398 601.211670,322.798737 
M603.138184,334.397064 
	C602.398376,335.177643 600.798523,335.019196 600.731018,336.369659 
	C606.833252,340.594360 609.346680,328.770966 615.600281,333.846802 
	C614.772644,327.826599 613.803955,327.349213 609.552185,330.250122 
	C607.633911,331.558929 605.661987,332.789124 603.138184,334.397064 
M605.009644,327.492981 
	C603.869507,325.576447 602.066162,326.303070 600.547485,326.561523 
	C598.928223,326.837128 597.225098,327.417267 596.741394,329.307373 
	C596.611450,329.815125 596.913696,330.708221 597.325745,331.031250 
	C598.915466,332.277466 600.498474,331.529053 601.910217,330.603546 
	C602.997009,329.891083 603.933472,328.949219 605.009644,327.492981 
M578.820862,368.257568 
	C576.054382,366.589691 573.713196,367.431824 571.884766,369.724548 
	C571.217834,370.560760 571.862732,371.876038 572.815308,372.205200 
	C575.779724,373.229614 577.851501,371.905701 579.231140,369.273224 
	C579.293396,369.154510 579.194336,368.951233 578.820862,368.257568 
z"/>
<path fill="#000000" opacity="1.000000" stroke="none" 
	d="
M206.813446,560.693970 
	C251.044662,551.635681 331.282501,570.301819 337.190948,590.945862 
	C335.247925,591.965576 334.067169,590.379272 332.798370,589.530029 
	C313.186432,576.403381 291.157349,570.542725 268.031952,568.273682 
	C227.693237,564.315613 188.398453,570.555054 149.534439,580.825745 
	C124.066971,587.556213 99.444443,596.684265 75.094078,606.619812 
	C73.149872,607.413086 71.230461,608.668945 68.800041,607.436462 
	C68.758522,604.413025 71.267197,603.669128 73.209579,602.782959 
	C92.747917,593.868713 112.520081,585.539551 132.809738,578.434814 
	C152.954987,571.380554 173.518204,566.042175 194.524445,562.365479 
	C198.449936,561.678406 202.424011,561.268860 206.813446,560.693970 
z"/>
<path fill="#000000" opacity="1.000000" stroke="none" 
	d="
M284.719421,306.940979 
	C295.235474,292.315948 314.425110,291.103943 324.547150,304.112610 
	C330.396820,311.630524 330.590271,321.877014 325.039032,330.165649 
	C319.603729,338.281128 307.317963,342.774078 298.098175,340.018066 
	C288.283752,337.084320 281.963379,328.894867 281.638000,319.202423 
	C281.492615,314.871674 282.611267,311.012695 284.719421,306.940979 
z"/>
<path fill="#000000" opacity="1.000000" stroke="none" 
	d="
M419.690155,296.025696 
	C434.392700,299.054077 440.969849,307.075073 440.262360,320.643738 
	C439.681885,331.776184 428.253998,341.534973 416.071594,341.301239 
	C403.851685,341.066864 394.536163,331.768677 393.601349,320.271973 
	C392.396179,305.450531 406.367706,295.474518 419.690155,296.025696 
z"/>
<path fill="#000000" opacity="1.000000" stroke="none" 
	d="
M515.998779,366.052002 
	C512.414795,366.915771 513.983093,369.165375 514.128723,370.966034 
	C514.725647,378.346375 511.578308,383.771667 505.447266,387.670990 
	C499.071381,391.726013 492.415985,391.856415 486.175964,387.967957 
	C480.505585,384.434448 477.260803,378.969757 477.977386,371.994965 
	C478.758972,364.387299 483.614075,359.830383 490.344757,357.096436 
	C497.165588,354.325836 503.399811,355.710449 508.897400,360.431274 
	C510.126617,361.486816 510.982849,362.976746 512.443115,364.809143 
	C514.285583,360.916748 514.747925,358.445068 511.243347,356.501465 
	C509.083069,355.303375 508.122681,353.089020 507.663544,350.752014 
	C507.262146,348.708954 507.437134,346.671692 509.385895,345.409332 
	C511.398621,344.105560 513.223572,345.011139 514.861084,346.305878 
	C516.674500,347.739777 518.474182,349.199402 520.185303,350.752014 
	C521.937988,352.342255 522.820984,353.894104 520.752869,356.191589 
	C518.326111,358.887573 519.865967,363.566315 515.998779,366.052002 
z"/>
<path fill="#000000" opacity="1.000000" stroke="none" 
	d="
M231.683319,354.931335 
	C242.195816,359.162689 246.023544,368.993469 241.312439,378.716858 
	C236.687698,388.262024 224.807419,392.164185 215.786118,387.101166 
	C206.661194,381.980011 203.804489,370.884186 210.147018,362.187408 
	C215.245514,355.196503 222.586716,352.536041 231.683319,354.931335 
z"/>
<path fill="#000000" opacity="1.000000" stroke="none" 
	d="
M202.970688,292.962433 
	C207.687057,299.388428 212.384476,305.828461 217.130005,312.232819 
	C218.806717,314.495667 221.533585,315.132019 223.899384,316.285919 
	C232.693909,320.575500 233.847183,323.606445 230.509247,332.945557 
	C229.312866,336.292877 227.900269,339.442444 225.282761,341.876251 
	C223.521881,343.513550 221.445755,344.664368 218.933090,343.636230 
	C216.535049,342.654938 215.358383,340.608704 215.170959,338.167633 
	C214.891235,334.524353 215.006546,330.851135 214.739868,327.206329 
	C214.228027,320.210754 211.872101,318.483521 205.028564,319.595917 
	C199.205734,320.542328 193.918900,322.982178 188.602737,325.313324 
	C185.598923,326.630493 183.065750,326.767944 180.277695,324.598602 
	C177.752563,322.633759 174.099762,322.859741 171.646759,320.203278 
	C169.263748,317.622681 168.165131,314.967590 168.992172,311.639343 
	C169.539291,309.437592 171.288818,308.086487 173.447037,308.462189 
	C176.422989,308.980255 180.516296,307.661591 181.446976,312.483398 
	C181.795425,314.288727 183.104630,315.008942 184.813660,314.405273 
	C191.226364,312.140106 197.870026,310.964233 205.337524,310.523529 
	C202.050797,304.492737 196.252167,302.277374 192.427277,298.058868 
	C191.656845,297.209106 190.526215,296.651276 189.873398,295.736389 
	C188.212753,293.409149 188.373199,290.935852 190.277054,288.881958 
	C192.229294,286.775879 194.650894,286.577545 197.010071,288.321747 
	C198.878357,289.703033 200.638718,291.230316 202.724884,292.845093 
	C203.002762,292.997375 202.970688,292.962433 202.970688,292.962433 
M193.908951,319.158234 
	C197.525192,318.025146 201.141449,316.892059 205.693390,315.465790 
	C196.020035,312.482666 184.270325,316.688629 184.556320,322.448639 
	C187.871704,322.711578 190.426056,320.730682 193.908951,319.158234 
M197.095840,292.459900 
	C195.720734,291.477997 194.346405,290.432068 192.530594,292.837250 
	C196.356384,297.296906 200.536102,301.292694 205.984024,303.839569 
	C204.071594,299.441315 201.017014,296.037781 197.095840,292.459900 
M227.763519,331.287292 
	C227.888672,329.357056 229.567139,327.439758 227.854645,324.916809 
	C225.734711,329.234558 226.572357,335.958862 218.937805,333.961945 
	C218.626022,336.255829 218.289368,338.739441 220.838058,339.526703 
	C223.034042,340.205078 224.387878,338.163147 225.423157,336.453430 
	C226.271027,335.053162 226.874649,333.505005 227.763519,331.287292 
z"/>
<path fill="#000000" opacity="1.000000" stroke="none" 
	d="
M548.346252,402.852905 
	C541.715942,399.429535 537.325745,394.746704 536.788391,387.330414 
	C536.580566,384.461212 535.144104,384.321594 532.736816,384.653503 
	C526.242859,385.548889 523.536560,382.156311 525.991882,376.309784 
	C526.612854,374.831055 526.797974,373.459290 526.466675,371.958557 
	C525.879456,369.298767 527.195435,367.716949 529.572327,367.115448 
	C532.739807,366.313873 535.423523,366.960968 537.284424,370.079895 
	C538.481262,372.085724 539.677734,373.740479 537.103760,375.579498 
	C535.586853,376.663269 535.059021,378.125885 536.218201,379.913696 
	C537.395996,381.730255 538.838501,381.435486 540.570679,380.849976 
	C546.928406,378.700775 553.082275,379.316895 558.827576,382.777893 
	C565.489868,386.791260 567.982849,393.655518 565.005859,399.293762 
	C562.340088,404.342529 555.661194,405.874634 548.346252,402.852905 
M551.149963,395.408875 
	C553.326477,396.014404 555.298096,395.942566 555.645081,393.171692 
	C555.913940,391.024811 554.645752,389.366577 552.546326,389.467163 
	C547.974060,389.686279 549.094666,392.347595 551.149963,395.408875 
z"/>
<path fill="#000000" opacity="1.000000" stroke="none" 
	d="
M203.020264,293.013367 
	C202.082565,289.951996 199.427887,286.447449 202.550476,283.790161 
	C205.876999,280.959290 209.062042,283.895081 211.924377,285.864685 
	C219.595978,291.143555 227.226807,296.481995 234.920288,301.728638 
	C237.564102,303.531586 239.837524,305.723816 241.872818,308.130219 
	C243.083130,309.561249 244.979187,311.294800 243.292725,313.340912 
	C241.767120,315.191864 239.835648,313.702820 238.294434,312.948883 
	C235.462402,311.563599 232.752197,309.925476 230.013229,308.354370 
	C221.217102,303.308685 212.431000,298.245514 203.305862,293.075745 
	C202.970688,292.962433 203.002762,292.997375 203.020264,293.013367 
M205.432159,288.594330 
	C212.400146,296.710052 222.756195,299.080566 231.501328,304.224060 
	C224.428040,298.397247 217.015808,293.111298 209.508194,287.964386 
	C208.368515,287.183075 206.762253,285.436188 205.432159,288.594330 
z"/>
<path fill="#000000" opacity="1.000000" stroke="none" 
	d="
M551.655396,355.427704 
	C548.891479,359.774841 545.653809,359.219574 542.715027,356.504303 
	C536.442444,350.708740 535.811340,341.228455 541.455200,332.923035 
	C543.613953,337.579468 548.484558,338.515320 551.654480,341.607910 
	C554.356567,344.244019 555.985718,347.542786 553.197632,351.388367 
	C552.451904,352.416962 552.256958,353.844910 551.655396,355.427704 
z"/>
<path fill="#000000" opacity="1.000000" stroke="none" 
	d="
M199.710251,576.163757 
	C202.996185,577.636353 204.429947,580.347290 205.599777,583.071655 
	C207.571335,587.663025 205.411667,589.799377 200.419434,589.590881 
	C194.472916,589.342468 188.492340,589.953491 182.524796,590.135925 
	C180.866592,590.186646 179.191269,590.136780 177.544037,589.952332 
	C176.052155,589.785278 175.089981,588.821533 175.124023,587.275208 
	C175.159363,585.671082 176.265366,584.897278 177.757126,584.851990 
	C181.250595,584.745972 184.770432,584.464600 188.236664,584.759277 
	C192.976318,585.162292 195.947449,583.569519 196.834717,578.714539 
	C197.088593,577.325317 197.650024,576.150208 199.710251,576.163757 
z"/>
<path fill="#000000" opacity="1.000000" stroke="none" 
	d="
M563.631897,298.526093 
	C561.911194,297.319946 561.226746,295.800323 560.339478,294.397125 
	C558.628296,291.691132 558.931519,289.168640 561.332092,287.327637 
	C563.911438,285.349579 566.490967,286.251617 568.175293,288.795074 
	C569.936340,291.454285 573.684326,292.046051 574.837708,295.626862 
	C572.398682,297.910522 571.398499,300.867401 571.276978,304.319794 
	C571.194458,306.663788 569.681519,308.675842 567.164062,308.375153 
	C564.416199,308.046967 565.515442,305.649353 565.707458,303.962677 
	C565.940613,301.915009 566.137268,299.942139 563.631897,298.526093 
z"/>
<path fill="#000000" opacity="1.000000" stroke="none" 
	d="
M154.050919,342.147095 
	C152.143600,339.618073 151.644196,337.333893 153.923141,335.229401 
	C155.292847,333.964508 155.111038,332.713959 154.481659,331.221558 
	C153.479797,328.846008 154.020950,326.840057 156.598282,326.085724 
	C160.010040,325.087097 163.113571,325.556671 165.328262,328.832520 
	C166.818100,331.036224 166.655365,332.781311 164.397873,334.295563 
	C163.745316,334.733276 163.207443,335.342010 162.740799,335.761108 
	C162.755707,338.170105 166.630112,339.901459 163.855209,342.098785 
	C160.985855,344.370941 157.572708,344.997925 154.050919,342.147095 
z"/>
<path fill="#000000" opacity="1.000000" stroke="none" 
	d="
M563.602051,339.252899 
	C564.709534,337.237061 566.284119,335.850647 565.824707,333.551270 
	C565.236938,330.610260 566.469421,328.994263 569.425659,328.112610 
	C571.813171,327.400543 573.668457,327.432892 575.109680,329.549133 
	C576.707275,331.895050 578.569641,334.250671 575.669678,337.015472 
	C575.121887,337.537720 574.492798,338.620087 574.685242,339.169159 
	C575.996460,342.909760 575.464844,345.364777 570.901306,345.581268 
	C566.651062,345.782959 563.738708,344.376099 563.602051,339.252899 
z"/>
<path fill="#000000" opacity="1.000000" stroke="none" 
	d="
M557.427673,309.566650 
	C561.042114,311.481903 562.588013,313.371887 559.857056,317.167755 
	C558.504333,319.047852 558.592590,321.918121 557.793457,324.260071 
	C557.292786,325.727264 556.049500,327.032227 554.425537,326.707642 
	C552.472290,326.317200 552.666260,324.480133 553.049866,323.022125 
	C553.801331,320.165833 553.795410,317.900909 550.418823,316.614227 
	C548.895142,316.033569 548.194763,314.235748 547.572205,312.662445 
	C546.594116,310.190613 546.175049,307.686035 548.503906,305.815430 
	C551.076355,303.749176 553.151184,305.479980 555.070007,307.189606 
	C555.812317,307.850983 556.460632,308.617889 557.427673,309.566650 
z"/>
<path fill="#000000" opacity="1.000000" stroke="none" 
	d="
M144.690247,322.854004 
	C140.383209,323.187592 138.231079,320.545715 136.647797,317.652557 
	C134.991409,314.625824 135.307037,311.351135 138.336563,309.261658 
	C141.579941,307.024689 144.967606,307.474609 147.781509,310.283508 
	C150.552917,313.049988 150.725128,317.876160 148.371872,320.703339 
	C147.486282,321.767212 146.344467,322.363129 144.690247,322.854004 
z"/>
<path fill="#000000" opacity="1.000000" stroke="none" 
	d="
M241.777985,581.309814 
	C240.208298,577.277832 240.208298,577.277832 241.258560,573.583130 
	C243.578445,573.995789 245.912857,573.784546 248.277084,573.044739 
	C249.499802,572.662170 251.466553,572.349182 252.232834,574.133484 
	C253.024170,575.976135 252.646698,578.393250 250.990616,579.007568 
	C247.049118,580.469727 246.088425,583.343689 245.790588,586.960876 
	C245.749466,587.460449 245.007141,587.902344 244.487854,588.484924 
	C241.800766,586.734619 243.239883,583.670715 241.777985,581.309814 
z"/>
<path fill="#000000" opacity="1.000000" stroke="none" 
	d="
M481.567749,575.350464 
	C485.152893,574.184692 486.974884,576.364624 488.333099,578.574585 
	C489.612152,580.655762 489.194519,583.359924 486.429779,583.578735 
	C481.878571,583.938721 480.719421,585.867554 481.917877,589.974854 
	C482.132355,590.709900 481.731018,591.614685 480.773926,591.933960 
	C476.640289,587.241638 476.779541,582.315552 481.567749,575.350464 
z"/>
<path fill="#000000" opacity="1.000000" stroke="none" 
	d="
M541.779114,570.171692 
	C542.748840,570.555969 543.471863,570.718140 543.914795,571.160645 
	C546.738892,573.981750 546.652039,577.196777 544.333435,580.080566 
	C542.517212,582.339539 539.589172,583.234619 537.271667,581.127197 
	C534.136536,578.276245 536.195984,574.983887 537.640320,572.051208 
	C538.321899,570.667297 539.750366,569.981018 541.779114,570.171692 
z"/>
<path fill="#000000" opacity="1.000000" stroke="none" 
	d="
M132.636261,354.711182 
	C133.388626,351.990448 132.492859,347.765472 136.154037,348.454773 
	C139.682053,349.119080 139.338882,352.755371 138.248428,355.873566 
	C137.271713,358.666473 136.692520,361.596191 135.793839,364.419678 
	C135.412018,365.619232 134.956329,367.130463 133.173492,366.799957 
	C131.619568,366.511902 131.146805,365.183594 131.016800,363.831512 
	C130.725067,360.797943 131.859940,357.992035 132.636261,354.711182 
z"/>
<path fill="#000000" opacity="1.000000" stroke="none" 
	d="
M227.397552,576.538574 
	C228.745468,574.919006 229.545761,573.018860 232.215561,573.733459 
	C233.481903,577.683716 232.088181,582.111389 233.723663,586.170471 
	C234.203857,587.362244 233.040131,588.707458 231.509674,588.967590 
	C229.573196,589.296753 226.728531,588.579102 226.960403,587.121643 
	C227.514786,583.636841 224.790451,580.142517 227.397552,576.538574 
z"/>
<path fill="#000000" opacity="1.000000" stroke="none" 
	d="
M493.288300,568.170166 
	C495.279266,569.197510 496.765686,567.993286 498.967651,567.468079 
	C499.724945,573.360168 494.901978,577.679077 496.989227,583.257568 
	C496.330872,583.267334 495.672546,583.277161 495.014221,583.286987 
	C493.340424,579.328979 491.454834,575.442200 490.087372,571.381042 
	C489.458893,569.514526 490.305603,567.710327 493.288300,568.170166 
z"/>
<path fill="#000000" opacity="1.000000" stroke="none" 
	d="
M264.404907,577.225098 
	C264.208252,579.916016 265.915741,581.562500 266.508728,583.596863 
	C267.010590,585.318604 266.805511,587.140930 264.852966,587.658386 
	C263.076202,588.129211 262.184052,586.633240 261.859741,585.081238 
	C261.283844,582.325500 260.930481,579.681152 257.751831,578.299255 
	C256.080353,577.572693 256.131256,575.279053 257.001068,573.872925 
	C258.154572,572.008118 260.325409,572.911316 262.049377,572.984497 
	C264.537018,573.090149 264.925842,574.763306 264.404907,577.225098 
z"/>
<path fill="#000000" opacity="1.000000" stroke="none" 
	d="
M527.513306,572.054565 
	C528.324463,576.093994 529.113220,579.767273 526.620605,584.464294 
	C524.800659,579.443298 523.242920,575.442566 521.942078,571.359985 
	C521.591675,570.260254 522.318848,568.972534 523.590149,568.615051 
	C526.177551,567.887207 526.407654,570.259644 527.513306,572.054565 
z"/>
<path fill="#000000" opacity="1.000000" stroke="none" 
	d="
M216.625916,577.949219 
	C217.255569,581.808105 218.183151,585.324768 215.471573,589.494263 
	C213.763519,584.814453 212.205383,580.976074 211.007782,577.028381 
	C210.593491,575.662720 211.102295,573.728760 212.905884,573.553528 
	C215.576447,573.294006 215.612747,575.909119 216.625916,577.949219 
z"/>
<path fill="#000000" opacity="1.000000" stroke="none" 
	d="
M510.566406,575.259766 
	C513.065063,577.136536 513.692444,579.315857 511.646118,581.252686 
	C510.095337,582.720581 508.437927,581.372864 507.744659,579.841187 
	C506.659943,577.444763 506.797028,575.303955 510.566406,575.259766 
z"/>
</svg>